# Blender v2.74 (sub 0) OBJ File: ''
# www.blender.org
mtllib Stone_1.mtl
o Cube_Cube.002
v 0.000000 0.000000 0.000000
v 0.000000 2.000000 0.000000
v 0.000000 1.000000 1.000000
v 1.000000 1.000000 0.000000
v 0.000000 1.000000 -1.000000
v -1.000000 1.000000 0.000000
v -0.750000 1.000000 0.750000
v -0.750000 1.750000 0.000000
v 0.000000 1.750000 -0.750000
v 0.750000 1.750000 0.000000
v 0.000000 1.750000 0.750000
v -0.750000 1.000000 -0.750000
v 0.750000 1.000000 -0.750000
v 0.750000 1.000000 0.750000
v 0.000000 0.000000 0.750000
v 0.750000 0.000000 0.000000
v 0.000000 0.000000 -0.750000
v -0.750000 0.000000 0.000000
v -0.555556 1.555556 0.555556
v -0.555556 1.555556 -0.555556
v 0.555556 1.555556 0.555556
v 0.555556 1.555556 -0.555556
v -0.555556 0.000000 0.555556
v -0.555556 0.000000 -0.555556
v 0.555556 0.000000 -0.555556
v 0.555556 0.000000 0.555556
vn 0.000000 -1.000000 0.000000
vn 0.000000 -0.728600 0.684900
vn -0.492800 -0.717200 0.492800
vn -0.684900 -0.728600 0.000000
vn -0.492800 -0.717200 -0.492800
vn 0.000000 -0.728600 -0.684900
vn 0.492800 -0.717200 -0.492800
vn 0.684900 -0.728600 0.000000
vn 0.492800 -0.717200 0.492800
vn 0.000000 1.000000 0.000000
vn 0.000000 0.707100 0.707100
vn 0.577300 0.577300 0.577300
vn 0.707100 0.707100 0.000000
vn 0.577300 0.577300 -0.577300
vn 0.000000 0.707100 -0.707100
vn -0.577300 0.577300 -0.577300
vn -0.707100 0.707100 0.000000
vn -0.577300 0.577300 0.577300
vn 0.000000 0.060200 0.998200
vn 0.704400 0.087100 0.704400
vn -0.704400 0.087100 0.704400
vn 0.998200 0.060200 0.000000
vn 0.704400 0.087100 -0.704400
vn 0.000000 0.060200 -0.998200
vn -0.704400 0.087100 -0.704400
vn -0.998200 0.060200 0.000000
usemtl Material.001
s 1
f 1//1 15//2 23//3
f 1//1 18//4 24//5
f 1//1 17//6 25//7
f 1//1 16//8 26//9
f 2//10 11//11 21//12
f 2//10 10//13 22//14
f 2//10 9//15 20//16
f 2//10 8//17 19//18
f 3//19 14//20 21//12
f 3//19 11//11 19//18
f 3//19 7//21 23//3
f 3//19 15//2 26//9
f 4//22 13//23 22//14
f 4//22 10//13 21//12
f 4//22 14//20 26//9
f 4//22 16//8 25//7
f 5//24 12//25 20//16
f 5//24 9//15 22//14
f 5//24 13//23 25//7
f 5//24 17//6 24//5
f 6//26 7//21 19//18
f 6//26 8//17 20//16
f 6//26 12//25 24//5
f 6//26 18//4 23//3
f 18//4 1//1 23//3
f 17//6 1//1 24//5
f 16//8 1//1 25//7
f 15//2 1//1 26//9
f 10//13 2//10 21//12
f 9//15 2//10 22//14
f 8//17 2//10 20//16
f 11//11 2//10 19//18
f 11//11 3//19 21//12
f 7//21 3//19 19//18
f 15//2 3//19 23//3
f 14//20 3//19 26//9
f 10//13 4//22 22//14
f 14//20 4//22 21//12
f 16//8 4//22 26//9
f 13//23 4//22 25//7
f 9//15 5//24 20//16
f 13//23 5//24 22//14
f 17//6 5//24 25//7
f 12//25 5//24 24//5
f 8//17 6//26 19//18
f 12//25 6//26 20//16
f 18//4 6//26 24//5
f 7//21 6//26 23//3
