# Blender v2.74 (sub 0) OBJ File: ''
# www.blender.org
mtllib ICOSphere.mtl
o Icosphere
v 0.000000 -1.000000 0.000000
v 0.723607 -0.447220 0.525725
v -0.276388 -0.447220 0.850649
v -0.894426 -0.447216 0.000000
v -0.276388 -0.447220 -0.850649
v 0.723607 -0.447220 -0.525725
v 0.276388 0.447220 0.850649
v -0.723607 0.447220 0.525725
v -0.723607 0.447220 -0.525725
v 0.276388 0.447220 -0.850649
v 0.894426 0.447216 0.000000
v 0.000000 1.000000 0.000000
v -0.162456 -0.850654 0.499995
v 0.425323 -0.850654 0.309011
v 0.262869 -0.525738 0.809012
v 0.850648 -0.525736 0.000000
v 0.425323 -0.850654 -0.309011
v -0.525730 -0.850652 0.000000
v -0.688189 -0.525736 0.499997
v -0.162456 -0.850654 -0.499995
v -0.688189 -0.525736 -0.499997
v 0.262869 -0.525738 -0.809012
v 0.951058 0.000000 0.309013
v 0.951058 0.000000 -0.309013
v 0.000000 0.000000 1.000000
v 0.587786 0.000000 0.809017
v -0.951058 0.000000 0.309013
v -0.587786 0.000000 0.809017
v -0.587786 0.000000 -0.809017
v -0.951058 0.000000 -0.309013
v 0.587786 0.000000 -0.809017
v 0.000000 0.000000 -1.000000
v 0.688189 0.525736 0.499997
v -0.262869 0.525738 0.809012
v -0.850648 0.525736 0.000000
v -0.262869 0.525738 -0.809012
v 0.688189 0.525736 -0.499997
v 0.162456 0.850654 0.499995
v 0.525730 0.850652 0.000000
v -0.425323 0.850654 0.309011
v -0.425323 0.850654 -0.309011
v 0.162456 0.850654 -0.499995
v -0.084770 -0.965679 0.260899
v 0.599517 -0.677237 0.435570
v -0.007054 -0.507692 0.866017
v 0.821452 -0.507691 0.274325
v 0.599517 -0.677237 -0.435570
v -0.274327 -0.965678 0.000000
v -0.825815 -0.507689 0.260900
v -0.084770 -0.965679 -0.260899
v -0.503320 -0.507693 -0.704774
v 0.514747 -0.507692 -0.696471
v 0.873847 -0.233360 0.435569
v 0.962980 0.233358 -0.161244
v -0.144220 -0.233361 0.965678
v 0.450929 0.233362 0.866022
v -0.962980 -0.233358 0.161244
v -0.684290 0.233360 0.696475
v -0.450929 -0.233362 -0.866022
v -0.873847 0.233360 -0.435569
v 0.684290 -0.233360 -0.696475
v 0.144220 0.233361 -0.965678
v 0.503320 0.507693 0.704774
v -0.514747 0.507692 0.696471
v -0.821452 0.507691 -0.274325
v 0.007054 0.507692 -0.866017
v 0.825815 0.507689 -0.260900
v 0.228990 0.677237 0.704772
v 0.274327 0.965678 0.000000
v -0.599517 0.677237 0.435570
v -0.599517 0.677237 -0.435570
v 0.228990 0.677237 -0.704772
v -0.228990 -0.677237 0.704772
v 0.221934 -0.965678 0.161243
v 0.514747 -0.507692 0.696471
v 0.821452 -0.507691 -0.274325
v 0.221934 -0.965678 -0.161243
v -0.741044 -0.677233 0.000000
v -0.503320 -0.507693 0.704774
v -0.228990 -0.677237 -0.704772
v -0.825815 -0.507689 -0.260900
v -0.007054 -0.507692 -0.866017
v 0.962980 0.233358 0.161244
v 0.873847 -0.233360 -0.435569
v 0.144220 0.233361 0.965678
v 0.684290 -0.233360 0.696475
v -0.873847 0.233360 0.435569
v -0.450929 -0.233362 0.866022
v -0.684290 0.233360 -0.696475
v -0.962980 -0.233358 -0.161244
v 0.450929 0.233362 -0.866022
v -0.144220 -0.233361 -0.965678
v 0.825815 0.507689 0.260900
v 0.007054 0.507692 0.866017
v -0.821452 0.507691 0.274325
v -0.514747 0.507692 -0.696471
v 0.503320 0.507693 -0.704774
v 0.084770 0.965679 0.260899
v 0.741044 0.677233 0.000000
v -0.221934 0.965678 0.161243
v -0.221934 0.965678 -0.161243
v 0.084770 0.965679 -0.260899
v 0.363280 0.898089 -0.263939
v 0.640806 0.726571 -0.263939
v 0.449040 0.726572 -0.527878
v -0.138762 0.898089 -0.427059
v -0.053006 0.726573 -0.691001
v -0.363284 0.726573 -0.590184
v -0.449039 0.898089 0.000000
v -0.673563 0.726573 -0.163122
v -0.673563 0.726573 0.163122
v -0.138762 0.898089 0.427059
v -0.363284 0.726573 0.590184
v -0.053006 0.726573 0.691001
v 0.363280 0.898089 0.263939
v 0.449040 0.726572 0.527878
v 0.640806 0.726571 0.263939
v 0.865331 0.277526 -0.427062
v 0.812331 0.000000 -0.590191
v 0.673564 0.277526 -0.691006
v -0.138764 0.277527 -0.954947
v -0.310280 0.000000 -0.954948
v -0.449044 0.277527 -0.854128
v -0.951089 0.277526 -0.163122
v -1.004091 0.000000 0.000000
v -0.951089 0.277526 0.163122
v -0.449044 0.277527 0.854128
v -0.310280 0.000000 0.954948
v -0.138764 0.277527 0.954947
v 0.673564 0.277526 0.691006
v 0.812331 0.000000 0.590191
v 0.865331 0.277526 0.427062
v 0.310280 0.000000 -0.954948
v 0.449044 -0.277527 -0.854128
v 0.138764 -0.277527 -0.954947
v -0.812331 0.000000 -0.590191
v -0.673564 -0.277526 -0.691006
v -0.865331 -0.277526 -0.427062
v -0.812331 0.000000 0.590191
v -0.865331 -0.277526 0.427062
v -0.673564 -0.277526 0.691006
v 0.310280 0.000000 0.954948
v 0.138764 -0.277527 0.954947
v 0.449044 -0.277527 0.854128
v 1.004091 0.000000 0.000000
v 0.951089 -0.277526 0.163122
v 0.951089 -0.277526 -0.163122
v 0.363284 -0.726573 -0.590184
v 0.138762 -0.898090 -0.427060
v 0.053006 -0.726573 -0.691001
v -0.449040 -0.726573 -0.527878
v -0.363280 -0.898089 -0.263939
v -0.640806 -0.726571 -0.263939
v -0.640806 -0.726571 0.263939
v -0.363280 -0.898089 0.263939
v -0.449040 -0.726573 0.527878
v 0.673563 -0.726573 -0.163122
v 0.673563 -0.726573 0.163122
v 0.449039 -0.898089 0.000000
v 0.053006 -0.726573 0.691001
v 0.138762 -0.898090 0.427060
v 0.363284 -0.726573 0.590184
vn 0.000000 -1.000000 0.000000
vn 0.220100 -0.962200 0.159900
vn -0.084000 -0.962200 0.258700
vn 0.723600 -0.447200 0.525700
vn 0.597900 -0.673700 0.434400
vn 0.818000 -0.505500 0.274400
vn -0.272100 -0.962200 0.000000
vn -0.084000 -0.962200 -0.258700
vn 0.220100 -0.962200 -0.159900
vn 0.869900 -0.233400 0.434300
vn -0.276400 -0.447200 0.850600
vn -0.008200 -0.505500 0.862700
vn -0.144300 -0.233400 0.961600
vn -0.894400 -0.447200 0.000000
vn -0.823100 -0.505500 0.258700
vn -0.959100 -0.233400 0.159900
vn -0.276400 -0.447200 -0.850600
vn -0.500400 -0.505500 -0.702800
vn -0.448500 -0.233400 -0.862800
vn 0.723600 -0.447200 -0.525700
vn 0.513800 -0.505500 -0.693100
vn 0.681900 -0.233500 -0.693100
vn 0.681900 -0.233500 0.693100
vn -0.448500 -0.233400 0.862800
vn -0.959100 -0.233400 -0.159900
vn -0.144300 -0.233400 -0.961600
vn 0.869900 -0.233400 -0.434300
vn 0.276400 0.447200 0.850600
vn 0.500400 0.505500 0.702800
vn 0.228300 0.673700 0.702800
vn -0.723600 0.447200 0.525700
vn -0.513800 0.505500 0.693100
vn -0.597900 0.673700 0.434400
vn -0.723600 0.447200 -0.525700
vn -0.818000 0.505500 -0.274400
vn -0.597900 0.673700 -0.434400
vn 0.276400 0.447200 -0.850600
vn 0.008200 0.505500 -0.862700
vn 0.228300 0.673700 -0.702800
vn 0.894400 0.447200 0.000000
vn 0.823100 0.505500 -0.258700
vn 0.739000 0.673700 0.000000
vn 0.525700 0.850600 0.000000
vn 0.369200 0.889800 -0.268200
vn 0.272100 0.962200 0.000000
vn 0.630800 0.728100 -0.268200
vn 0.688200 0.525700 -0.500000
vn 0.500400 0.505500 -0.702800
vn 0.450000 0.728100 -0.517000
vn 0.162500 0.850600 -0.500000
vn -0.141000 0.889800 -0.434000
vn 0.084000 0.962200 -0.258700
vn -0.060200 0.728100 -0.682800
vn -0.262900 0.525700 -0.809000
vn -0.513800 0.505500 -0.693100
vn -0.352600 0.728100 -0.587700
vn -0.425300 0.850600 -0.309000
vn -0.456300 0.889800 0.000000
vn -0.220100 0.962200 -0.159900
vn -0.668000 0.728100 -0.153800
vn -0.850600 0.525700 0.000000
vn -0.818000 0.505500 0.274400
vn -0.668000 0.728100 0.153800
vn -0.425300 0.850600 0.309000
vn -0.141000 0.889800 0.434000
vn -0.220100 0.962200 0.159900
vn -0.352600 0.728100 0.587700
vn -0.262900 0.525700 0.809000
vn 0.008200 0.505500 0.862700
vn -0.060200 0.728100 0.682800
vn 0.162500 0.850600 0.500000
vn 0.369200 0.889800 0.268200
vn 0.084000 0.962200 0.258700
vn 0.450000 0.728100 0.517000
vn 0.688200 0.525700 0.500000
vn 0.823100 0.505500 0.258700
vn 0.630800 0.728100 0.268200
vn 0.951000 0.000000 -0.309000
vn 0.858900 0.271800 -0.434000
vn 0.959100 0.233400 -0.159900
vn 0.809000 0.010200 -0.587700
vn 0.587800 0.000000 -0.809000
vn 0.448500 0.233400 -0.862800
vn 0.678200 0.271800 -0.682800
vn 0.000000 0.000000 -1.000000
vn -0.147300 0.271800 -0.951000
vn 0.144300 0.233400 -0.961600
vn -0.309000 0.010200 -0.951000
vn -0.587800 0.000000 -0.809000
vn -0.681900 0.233500 -0.693100
vn -0.439800 0.271800 -0.856000
vn -0.951000 0.000000 -0.309000
vn -0.950000 0.271800 -0.153800
vn -0.869900 0.233400 -0.434300
vn -0.999900 0.010200 0.000000
vn -0.951000 0.000000 0.309000
vn -0.869900 0.233400 0.434300
vn -0.950000 0.271800 0.153800
vn -0.587800 0.000000 0.809000
vn -0.439800 0.271800 0.856000
vn -0.681900 0.233500 0.693100
vn -0.309000 0.010200 0.951000
vn 0.000000 0.000000 1.000000
vn 0.144300 0.233400 0.961600
vn -0.147300 0.271800 0.951000
vn 0.587800 0.000000 0.809000
vn 0.678200 0.271800 0.682800
vn 0.448500 0.233400 0.862800
vn 0.809000 0.010200 0.587700
vn 0.951000 0.000000 0.309000
vn 0.959100 0.233400 0.159900
vn 0.858900 0.271800 0.434000
vn 0.309000 -0.010200 -0.951000
vn 0.439800 -0.271800 -0.856000
vn 0.262900 -0.525700 -0.809000
vn -0.008200 -0.505500 -0.862700
vn 0.147300 -0.271800 -0.951000
vn -0.809000 -0.010200 -0.587700
vn -0.678200 -0.271800 -0.682800
vn -0.688200 -0.525700 -0.500000
vn -0.823100 -0.505500 -0.258700
vn -0.858900 -0.271800 -0.434000
vn -0.809000 -0.010200 0.587700
vn -0.858900 -0.271800 0.434000
vn -0.688200 -0.525700 0.500000
vn -0.500400 -0.505500 0.702800
vn -0.678200 -0.271800 0.682800
vn 0.309000 -0.010200 0.951000
vn 0.147300 -0.271800 0.951000
vn 0.262900 -0.525700 0.809000
vn 0.513800 -0.505500 0.693100
vn 0.439800 -0.271800 0.856000
vn 0.999900 -0.010200 0.000000
vn 0.950000 -0.271800 0.153800
vn 0.850600 -0.525700 0.000000
vn 0.818000 -0.505500 -0.274400
vn 0.950000 -0.271800 -0.153800
vn 0.425300 -0.850600 -0.309000
vn 0.352600 -0.728100 -0.587700
vn 0.597900 -0.673700 -0.434400
vn 0.141000 -0.889800 -0.434000
vn -0.162500 -0.850600 -0.500000
vn -0.228300 -0.673700 -0.702800
vn 0.060200 -0.728100 -0.682800
vn -0.450000 -0.728100 -0.517000
vn -0.369200 -0.889800 -0.268200
vn -0.525700 -0.850600 0.000000
vn -0.739000 -0.673700 0.000000
vn -0.630800 -0.728100 -0.268200
vn -0.630800 -0.728100 0.268200
vn -0.369200 -0.889800 0.268200
vn -0.162500 -0.850600 0.500000
vn -0.228300 -0.673700 0.702800
vn -0.450000 -0.728100 0.517000
vn 0.668000 -0.728100 -0.153800
vn 0.668000 -0.728100 0.153800
vn 0.425300 -0.850600 0.309000
vn 0.456300 -0.889800 0.000000
vn 0.060200 -0.728100 0.682800
vn 0.141000 -0.889800 0.434000
vn 0.352600 -0.728100 0.587700
vn 0.000000 1.000000 0.000000
usemtl None
s 1
f 1//1 74//2 43//3
f 2//4 44//5 46//6
f 1//1 43//3 48//7
f 1//1 48//7 50//8
f 1//1 50//8 77//9
f 2//4 46//6 53//10
f 3//11 45//12 55//13
f 4//14 49//15 57//16
f 5//17 51//18 59//19
f 6//20 52//21 61//22
f 2//4 53//10 86//23
f 3//11 55//13 88//24
f 4//14 57//16 90//25
f 5//17 59//19 92//26
f 6//20 61//22 84//27
f 7//28 63//29 68//30
f 8//31 64//32 70//33
f 9//34 65//35 71//36
f 10//37 66//38 72//39
f 11//40 67//41 99//42
f 39//43 103//44 69//45
f 39//43 104//46 103//44
f 37//47 97//48 105//49
f 42//50 106//51 102//52
f 42//50 107//53 106//51
f 36//54 96//55 108//56
f 41//57 109//58 101//59
f 41//57 110//60 109//58
f 35//61 95//62 111//63
f 40//64 112//65 100//66
f 40//64 113//67 112//65
f 34//68 94//69 114//70
f 38//71 115//72 98//73
f 38//71 116//74 115//72
f 33//75 93//76 117//77
f 24//78 118//79 54//80
f 24//78 119//81 118//79
f 31//82 91//83 120//84
f 32//85 121//86 62//87
f 32//85 122//88 121//86
f 29//89 89//90 123//91
f 30//92 124//93 60//94
f 30//92 125//95 124//93
f 27//96 87//97 126//98
f 28//99 127//100 58//101
f 28//99 128//102 127//100
f 25//103 85//104 129//105
f 26//106 130//107 56//108
f 26//106 131//109 130//107
f 23//110 83//111 132//112
f 31//82 133//113 91//83
f 31//82 134//114 133//113
f 22//115 82//116 135//117
f 29//89 136//118 89//90
f 29//89 137//119 136//118
f 21//120 81//121 138//122
f 27//96 139//123 87//97
f 27//96 140//124 139//123
f 19//125 79//126 141//127
f 25//103 142//128 85//104
f 25//103 143//129 142//128
f 15//130 75//131 144//132
f 23//110 145//133 83//111
f 23//110 146//134 145//133
f 16//135 76//136 147//137
f 17//138 148//139 47//140
f 17//138 149//141 148//139
f 20//142 80//143 150//144
f 20//142 151//145 80//143
f 20//142 152//146 151//145
f 18//147 78//148 153//149
f 18//147 154//150 78//148
f 18//147 155//151 154//150
f 13//152 73//153 156//154
f 16//135 157//155 76//136
f 16//135 158//156 157//155
f 14//157 74//2 159//158
f 13//152 160//159 73//153
f 13//152 161//160 160//159
f 14//157 44//5 162//161
f 162//161 75//131 15//130
f 162//161 44//5 75//131
f 44//5 2//4 75//131
f 160//159 162//161 15//130
f 160//159 161//160 162//161
f 161//160 14//157 162//161
f 73//153 45//12 3//11
f 73//153 160//159 45//12
f 160//159 15//130 45//12
f 159//158 77//9 17//138
f 159//158 74//2 77//9
f 74//2 1//1 77//9
f 157//155 159//158 17//138
f 157//155 158//156 159//158
f 158//156 14//157 159//158
f 76//136 47//140 6//20
f 76//136 157//155 47//140
f 157//155 17//138 47//140
f 156//154 79//126 19//125
f 156//154 73//153 79//126
f 73//153 3//11 79//126
f 154//150 156//154 19//125
f 154//150 155//151 156//154
f 155//151 13//152 156//154
f 78//148 49//15 4//14
f 78//148 154//150 49//15
f 154//150 19//125 49//15
f 153//149 81//121 21//120
f 153//149 78//148 81//121
f 78//148 4//14 81//121
f 151//145 153//149 21//120
f 151//145 152//146 153//149
f 152//146 18//147 153//149
f 80//143 51//18 5//17
f 80//143 151//145 51//18
f 151//145 21//120 51//18
f 150//144 82//116 22//115
f 150//144 80//143 82//116
f 80//143 5//17 82//116
f 148//139 150//144 22//115
f 148//139 149//141 150//144
f 149//141 20//142 150//144
f 47//140 52//21 6//20
f 47//140 148//139 52//21
f 148//139 22//115 52//21
f 147//137 84//27 24//78
f 147//137 76//136 84//27
f 76//136 6//20 84//27
f 145//133 147//137 24//78
f 145//133 146//134 147//137
f 146//134 16//135 147//137
f 83//111 54//80 11//40
f 83//111 145//133 54//80
f 145//133 24//78 54//80
f 144//132 86//23 26//106
f 144//132 75//131 86//23
f 75//131 2//4 86//23
f 142//128 144//132 26//106
f 142//128 143//129 144//132
f 143//129 15//130 144//132
f 85//104 56//108 7//28
f 85//104 142//128 56//108
f 142//128 26//106 56//108
f 141//127 88//24 28//99
f 141//127 79//126 88//24
f 79//126 3//11 88//24
f 139//123 141//127 28//99
f 139//123 140//124 141//127
f 140//124 19//125 141//127
f 87//97 58//101 8//31
f 87//97 139//123 58//101
f 139//123 28//99 58//101
f 138//122 90//25 30//92
f 138//122 81//121 90//25
f 81//121 4//14 90//25
f 136//118 138//122 30//92
f 136//118 137//119 138//122
f 137//119 21//120 138//122
f 89//90 60//94 9//34
f 89//90 136//118 60//94
f 136//118 30//92 60//94
f 135//117 92//26 32//85
f 135//117 82//116 92//26
f 82//116 5//17 92//26
f 133//113 135//117 32//85
f 133//113 134//114 135//117
f 134//114 22//115 135//117
f 91//83 62//87 10//37
f 91//83 133//113 62//87
f 133//113 32//85 62//87
f 132//112 93//76 33//75
f 132//112 83//111 93//76
f 83//111 11//40 93//76
f 130//107 132//112 33//75
f 130//107 131//109 132//112
f 131//109 23//110 132//112
f 56//108 63//29 7//28
f 56//108 130//107 63//29
f 130//107 33//75 63//29
f 129//105 94//69 34//68
f 129//105 85//104 94//69
f 85//104 7//28 94//69
f 127//100 129//105 34//68
f 127//100 128//102 129//105
f 128//102 25//103 129//105
f 58//101 64//32 8//31
f 58//101 127//100 64//32
f 127//100 34//68 64//32
f 126//98 95//62 35//61
f 126//98 87//97 95//62
f 87//97 8//31 95//62
f 124//93 126//98 35//61
f 124//93 125//95 126//98
f 125//95 27//96 126//98
f 60//94 65//35 9//34
f 60//94 124//93 65//35
f 124//93 35//61 65//35
f 123//91 96//55 36//54
f 123//91 89//90 96//55
f 89//90 9//34 96//55
f 121//86 123//91 36//54
f 121//86 122//88 123//91
f 122//88 29//89 123//91
f 62//87 66//38 10//37
f 62//87 121//86 66//38
f 121//86 36//54 66//38
f 120//84 97//48 37//47
f 120//84 91//83 97//48
f 91//83 10//37 97//48
f 118//79 120//84 37//47
f 118//79 119//81 120//84
f 119//81 31//82 120//84
f 54//80 67//41 11//40
f 54//80 118//79 67//41
f 118//79 37//47 67//41
f 117//77 99//42 39//43
f 117//77 93//76 99//42
f 93//76 11//40 99//42
f 115//72 117//77 39//43
f 115//72 116//74 117//77
f 116//74 33//75 117//77
f 98//73 69//45 12//162
f 98//73 115//72 69//45
f 115//72 39//43 69//45
f 114//70 68//30 38//71
f 114//70 94//69 68//30
f 94//69 7//28 68//30
f 112//65 114//70 38//71
f 112//65 113//67 114//70
f 113//67 34//68 114//70
f 100//66 98//73 12//162
f 100//66 112//65 98//73
f 112//65 38//71 98//73
f 111//63 70//33 40//64
f 111//63 95//62 70//33
f 95//62 8//31 70//33
f 109//58 111//63 40//64
f 109//58 110//60 111//63
f 110//60 35//61 111//63
f 101//59 100//66 12//162
f 101//59 109//58 100//66
f 109//58 40//64 100//66
f 108//56 71//36 41//57
f 108//56 96//55 71//36
f 96//55 9//34 71//36
f 106//51 108//56 41//57
f 106//51 107//53 108//56
f 107//53 36//54 108//56
f 102//52 101//59 12//162
f 102//52 106//51 101//59
f 106//51 41//57 101//59
f 105//49 72//39 42//50
f 105//49 97//48 72//39
f 97//48 10//37 72//39
f 103//44 105//49 42//50
f 103//44 104//46 105//49
f 104//46 37//47 105//49
f 69//45 102//52 12//162
f 69//45 103//44 102//52
f 103//44 42//50 102//52
f 99//42 104//46 39//43
f 99//42 67//41 104//46
f 67//41 37//47 104//46
f 72//39 107//53 42//50
f 72//39 66//38 107//53
f 66//38 36//54 107//53
f 71//36 110//60 41//57
f 71//36 65//35 110//60
f 65//35 35//61 110//60
f 70//33 113//67 40//64
f 70//33 64//32 113//67
f 64//32 34//68 113//67
f 68//30 116//74 38//71
f 68//30 63//29 116//74
f 63//29 33//75 116//74
f 84//27 119//81 24//78
f 84//27 61//22 119//81
f 61//22 31//82 119//81
f 92//26 122//88 32//85
f 92//26 59//19 122//88
f 59//19 29//89 122//88
f 90//25 125//95 30//92
f 90//25 57//16 125//95
f 57//16 27//96 125//95
f 88//24 128//102 28//99
f 88//24 55//13 128//102
f 55//13 25//103 128//102
f 86//23 131//109 26//106
f 86//23 53//10 131//109
f 53//10 23//110 131//109
f 61//22 134//114 31//82
f 61//22 52//21 134//114
f 52//21 22//115 134//114
f 59//19 137//119 29//89
f 59//19 51//18 137//119
f 51//18 21//120 137//119
f 57//16 140//124 27//96
f 57//16 49//15 140//124
f 49//15 19//125 140//124
f 55//13 143//129 25//103
f 55//13 45//12 143//129
f 45//12 15//130 143//129
f 53//10 146//134 23//110
f 53//10 46//6 146//134
f 46//6 16//135 146//134
f 77//9 149//141 17//138
f 77//9 50//8 149//141
f 50//8 20//142 149//141
f 50//8 152//146 20//142
f 50//8 48//7 152//146
f 48//7 18//147 152//146
f 48//7 155//151 18//147
f 48//7 43//3 155//151
f 43//3 13//152 155//151
f 46//6 158//156 16//135
f 46//6 44//5 158//156
f 44//5 14//157 158//156
f 43//3 161//160 13//152
f 43//3 74//2 161//160
f 74//2 14//157 161//160
