# Blender v2.77 (sub 0) OBJ File: ''
# www.blender.org
mtllib Base.mtl
o Circle
v 0.000000 5.500000 -2.000000
v -0.390181 5.500000 -1.961570
v -0.765367 5.500000 -1.847759
v -1.111140 5.500000 -1.662939
v -1.414213 5.500000 -1.414213
v -1.662939 5.500000 -1.111140
v -1.847759 5.500000 -0.765367
v -1.961570 5.500000 -0.390180
v -2.000000 5.500000 0.000000
v -1.961571 5.500000 0.390181
v -1.847759 5.500000 0.765367
v -1.662939 5.500000 1.111141
v -1.414213 5.500000 1.414214
v -1.111140 5.500000 1.662940
v -0.765366 5.500000 1.847760
v -0.390180 5.500000 1.961571
v 0.000001 5.500000 2.000000
v 0.390182 5.500000 1.961571
v 0.765368 5.500000 1.847759
v 1.111142 5.500000 1.662939
v 1.414215 5.500000 1.414213
v 1.662940 5.500000 1.111140
v 1.847760 5.500000 0.765366
v 1.961571 5.500000 0.390179
v 2.000000 5.500000 -0.000002
v 1.961570 5.500000 -0.390182
v 1.847758 5.500000 -0.765369
v 1.662938 5.500000 -1.111142
v 1.414212 5.500000 -1.414215
v 1.111138 5.500000 -1.662940
v 0.765364 5.500000 -1.847760
v 0.390178 5.500000 -1.961571
v -0.612105 4.533578 -3.077260
v 0.000000 4.533578 -3.137547
v -1.200687 4.533578 -2.898715
v -1.743127 4.533578 -2.608775
v -2.218580 4.533578 -2.218580
v -2.608775 4.533578 -1.743127
v -2.898715 4.533578 -1.200687
v -3.077260 4.533578 -0.612105
v -3.137547 4.533578 0.000000
v -3.077260 4.533578 0.612105
v -2.898715 4.533578 1.200687
v -2.608775 4.533578 1.743128
v -2.218580 4.533578 2.218581
v -1.743127 4.533578 2.608776
v -1.200686 4.533578 2.898716
v -0.612104 4.533578 3.077260
v 0.000001 4.533578 3.137547
v 0.612107 4.533578 3.077260
v 1.200689 4.533578 2.898715
v 1.743129 4.533578 2.608775
v 2.218583 4.533578 2.218580
v 2.608777 4.533578 1.743127
v 2.898717 4.533578 1.200686
v 3.077261 4.533578 0.612103
v 3.137547 4.533578 -0.000002
v 3.077260 4.533578 -0.612108
v 2.898715 4.533578 -1.200690
v 2.608773 4.533578 -1.743130
v 2.218578 4.533578 -2.218583
v 1.743125 4.533578 -2.608777
v 1.200683 4.533578 -2.898717
v 0.612101 4.533578 -3.077260
v 2.494407 5.659344 -1.666713
v 3.325876 5.992678 -2.222284
v 3.695517 5.492677 -1.530737
v 2.771637 5.659344 -1.148053
v -1.148050 5.659344 2.771639
v -1.530733 5.492678 3.695519
v -2.222280 5.992677 3.325879
v -1.666710 5.659344 2.494409
v -0.585271 5.659344 -2.942355
v -0.780361 5.492678 -3.923140
v 0.000000 5.492677 -3.999999
v 0.000000 5.659344 -2.999999
v 2.121318 5.659344 -2.121322
v 2.828424 5.992678 -2.828429
v -0.585270 5.659344 2.942357
v -0.780360 5.492678 3.923142
v -1.148050 5.659344 -2.771638
v -1.530734 5.492678 -3.695517
v 1.666708 5.659344 -2.494411
v 2.222277 5.992678 -3.325881
v 0.000001 5.659344 3.000000
v 0.000002 5.492678 4.000000
v -1.666710 5.659344 -2.494408
v -2.222281 5.992678 -3.325878
v 1.148046 5.659344 -2.771640
v 1.530729 5.492678 -3.695520
v 0.585272 5.659344 2.942356
v 0.780363 5.492678 3.923141
v -2.121320 5.659344 -2.121320
v -2.828427 5.992678 -2.828426
v 0.585267 5.659344 -2.942356
v 0.780356 5.492678 -3.923141
v 1.148052 5.659344 2.771639
v 1.530736 5.492678 3.695518
v -2.494409 5.659344 -1.666710
v -3.325878 5.992678 -2.222280
v 1.666712 5.659344 2.494409
v 2.222283 5.992678 3.325878
v -2.771638 5.659344 -1.148050
v -3.695518 5.492678 -1.530733
v 2.121322 5.659344 2.121320
v 2.828429 5.992678 2.828426
v -2.942356 5.659344 -0.585271
v -3.923141 5.492678 -0.780361
v 2.494410 5.659344 1.666710
v 3.325881 5.992678 2.222280
v -3.000000 5.659344 0.000000
v -4.000000 5.492678 0.000001
v 2.771640 5.659344 1.148049
v 3.695520 5.492678 1.530732
v -2.942356 5.659344 0.585271
v -3.923141 5.492678 0.780362
v 2.942357 5.659344 0.585269
v 3.923142 5.492678 0.780359
v -2.771638 5.659344 1.148050
v -3.695518 5.492678 1.530734
v 3.000000 5.659344 -0.000002
v 4.000000 5.492678 -0.000003
v -2.494409 5.659344 1.666711
v -3.325878 5.992678 2.222282
v 2.942356 5.659344 -0.585274
v 3.923141 5.492678 -0.780365
v -2.121320 5.659344 2.121321
v -2.828427 5.992678 2.828428
v 3.436095 5.264571 -2.295930
v -1.581461 4.764570 3.817988
v -0.806222 4.764571 -4.053153
v 2.922158 5.264571 -2.922163
v -0.806221 4.764571 4.053154
v -1.581462 4.764571 -3.817986
v 2.295923 5.264571 -3.436100
v 0.000002 4.764571 4.132560
v -2.295927 5.264571 -3.436097
v 1.581457 4.764571 -3.817989
v 0.806224 4.764570 4.053154
v -2.922160 5.264571 -2.922160
v 0.806217 4.764571 -4.053154
v 1.581464 4.764570 3.817987
v -3.436097 5.264571 -2.295926
v 2.295929 5.264570 3.436097
v -3.817987 4.764571 -1.581461
v 2.922163 5.264571 2.922160
v -4.053153 4.764571 -0.806222
v 3.436100 5.264571 2.295926
v -4.132559 4.764571 0.000001
v 3.817989 4.764570 1.581460
v -4.053153 4.764571 0.806223
v 4.053155 4.764570 0.806220
v -3.817987 4.764571 1.581462
v 4.132560 4.764571 -0.000003
v -3.436097 5.264571 2.295928
v 4.053153 4.764571 -0.806226
v -2.922160 5.264571 2.922162
v 3.817986 4.764570 -1.581465
v -2.295926 5.264570 3.436098
v 0.000000 4.764570 -4.132559
v -0.612105 -0.350926 -4.077260
v 0.000000 -0.350926 -4.137547
v -4.137547 -0.350926 0.000000
v -4.077260 -0.350926 -0.612105
v -4.077260 -0.350926 0.612105
v 0.000001 -0.350926 4.137547
v -0.612104 -0.350926 4.077260
v 0.612107 -0.350926 4.077260
v 4.137547 -0.350926 -0.000002
v 4.077261 -0.350926 0.612103
v 4.077260 -0.350926 -0.612108
v 0.612101 -0.350926 -4.077260
v -0.806222 -0.350926 -5.053153
v -0.806221 -0.350926 5.053154
v 0.000002 -0.350926 5.132560
v 0.806224 -0.350926 5.053154
v 0.806216 -0.350926 -5.053154
v -5.053153 -0.350926 -0.806222
v -5.132559 -0.350926 0.000001
v -5.053153 -0.350926 0.806223
v 5.053155 -0.350926 0.806220
v 5.132560 -0.350926 -0.000003
v 5.053153 -0.350926 -0.806226
v 0.000000 -0.350926 -5.132559
v -0.612104 2.091326 4.077260
v 0.000001 2.091326 4.137547
v 0.612107 2.091326 4.077260
v 0.806224 2.206822 5.053154
v 0.000002 2.206823 5.132560
v -0.806221 2.206822 5.053154
v -4.137547 2.091326 0.000000
v -4.077260 2.091326 -0.612105
v -4.077260 2.091326 0.612105
v -5.053153 2.206822 -0.806222
v -5.053153 2.206822 0.806223
v -5.132559 2.206823 0.000001
v 0.000000 2.091326 -4.137547
v -0.612105 2.091326 -4.077260
v -0.806222 2.206822 -5.053153
v 0.000000 2.206822 -5.132559
v 0.612101 2.091326 -4.077260
v 0.806216 2.206822 -5.053154
v 5.053155 2.206822 0.806220
v 5.132560 2.206822 -0.000003
v 4.077261 2.091326 0.612103
v 4.137547 2.091326 -0.000002
v 4.077260 2.091326 -0.612108
v 5.053153 2.206823 -0.806226
vn 0.2256 -0.8578 -0.4618
vn -0.4618 -0.8578 0.2256
vn -0.9952 0.0000 -0.0980
vn 0.4591 -0.8045 -0.3768
vn -0.0659 -0.9739 0.2174
vn -0.0659 -0.9739 -0.2174
vn 0.3768 -0.8045 -0.4591
vn 0.0980 0.0000 0.9952
vn -0.4618 -0.8578 -0.2256
vn 0.4618 -0.8578 -0.2256
vn 0.9808 0.0000 -0.1951
vn -0.3768 -0.8045 -0.4591
vn 0.0659 -0.9739 -0.2174
vn 0.0659 -0.9739 0.2174
vn -0.4591 -0.8045 -0.3768
vn 0.9952 0.0000 -0.0980
vn 0.4618 -0.8578 0.2256
vn -0.2256 -0.8578 -0.4618
vn 0.3768 -0.8045 0.4591
vn -0.2174 -0.9739 -0.0659
vn 0.4591 -0.8045 0.3768
vn 0.0980 0.0000 -0.9952
vn 0.2256 -0.8578 0.4618
vn 0.2174 -0.9739 0.0659
vn -0.2174 -0.9739 0.0659
vn 0.9952 0.0000 0.0980
vn -0.2256 -0.8578 0.4618
vn -0.4591 -0.8045 0.3768
vn 0.2174 -0.9739 -0.0659
vn -0.3768 -0.8045 0.4591
vn 0.1003 0.9874 -0.1222
vn 0.2015 0.9482 -0.2455
vn -0.1513 0.9874 0.0459
vn 0.1581 0.9863 -0.0479
vn 0.1222 0.9874 -0.1003
vn 0.2455 0.9482 -0.2015
vn -0.1573 0.9874 0.0155
vn 0.1644 0.9863 -0.0162
vn 0.1394 0.9874 -0.0745
vn -0.0917 0.9367 -0.3380
vn -0.1573 0.9874 -0.0155
vn 0.1644 0.9863 0.0162
vn 0.1513 0.9874 -0.0459
vn -0.1581 0.9863 0.0479
vn -0.1513 0.9874 -0.0459
vn 0.1581 0.9863 0.0479
vn 0.1573 0.9874 -0.0155
vn -0.1644 0.9863 0.0162
vn -0.1394 0.9874 -0.0745
vn 0.0917 0.9367 -0.3380
vn 0.1573 0.9874 0.0155
vn -0.1644 0.9863 -0.0162
vn -0.1222 0.9874 -0.1003
vn -0.2455 0.9482 -0.2015
vn 0.1513 0.9874 0.0459
vn -0.1581 0.9863 -0.0479
vn -0.1003 0.9874 -0.1222
vn -0.2015 0.9482 -0.2455
vn 0.1394 0.9874 0.0745
vn -0.0917 0.9367 0.3380
vn -0.0745 0.9874 -0.1394
vn -0.3380 0.9367 0.0917
vn -0.0155 0.9874 0.1573
vn 0.0162 0.9863 -0.1644
vn 0.1222 0.9874 0.1003
vn 0.2455 0.9482 0.2015
vn -0.0459 0.9874 -0.1513
vn 0.0479 0.9863 0.1581
vn -0.0459 0.9874 0.1513
vn 0.0479 0.9863 -0.1581
vn 0.1003 0.9874 0.1222
vn 0.2015 0.9482 0.2455
vn -0.0155 0.9874 -0.1573
vn 0.0162 0.9863 0.1644
vn -0.0745 0.9874 0.1394
vn -0.3380 0.9367 -0.0917
vn 0.0745 0.9874 0.1394
vn 0.3380 0.9367 -0.0917
vn 0.0155 0.9874 -0.1573
vn -0.0162 0.9863 0.1644
vn -0.1003 0.9874 0.1222
vn -0.2015 0.9482 0.2455
vn 0.0459 0.9874 0.1513
vn -0.0479 0.9863 -0.1581
vn 0.0459 0.9874 -0.1513
vn -0.0479 0.9863 0.1581
vn -0.1222 0.9874 0.1003
vn -0.2455 0.9482 0.2015
vn 0.0155 0.9874 0.1573
vn -0.0162 0.9863 -0.1644
vn 0.0745 0.9874 -0.1394
vn 0.3380 0.9367 0.0917
vn -0.1394 0.9874 0.0745
vn 0.0917 0.9367 0.3380
vn -0.6242 0.1783 0.7606
vn 0.9416 0.1783 -0.2856
vn -0.7606 0.1783 0.6242
vn 0.9792 0.1783 -0.0964
vn -0.9148 0.1772 0.3630
vn 0.9792 0.1783 0.0964
vn -0.9416 0.1783 0.2856
vn 0.9416 0.1783 0.2856
vn -0.9792 0.1783 0.0964
vn 0.9148 0.1772 0.3630
vn -0.9792 0.1783 -0.0964
vn 0.7606 0.1783 0.6242
vn -0.9416 0.1783 -0.2856
vn 0.6242 0.1783 0.7606
vn -0.9148 0.1772 -0.3630
vn 0.3630 0.1772 0.9148
vn 0.0964 0.1783 -0.9792
vn -0.7606 0.1783 -0.6242
vn 0.2856 0.1783 0.9416
vn 0.2856 0.1783 -0.9416
vn -0.6242 0.1783 -0.7606
vn 0.0964 0.1783 0.9792
vn 0.3630 0.1772 -0.9148
vn -0.3630 0.1772 -0.9148
vn -0.0964 0.1783 0.9792
vn 0.6242 0.1783 -0.7606
vn -0.2856 0.1783 -0.9416
vn -0.2856 0.1783 0.9416
vn 0.7606 0.1783 -0.6242
vn -0.0964 0.1783 -0.9792
vn -0.3630 0.1772 0.9148
vn 0.9148 0.1772 -0.3630
vn 0.1885 -0.7606 0.6213
vn 0.3061 -0.7606 0.5726
vn 0.4119 -0.7606 0.5019
vn 0.5019 -0.7606 0.4119
vn 0.5726 -0.7606 0.3061
vn 0.6213 -0.7606 0.1885
vn 0.6461 -0.7606 0.0636
vn 0.6461 -0.7606 -0.0636
vn 0.6213 -0.7606 -0.1885
vn 0.5726 -0.7606 -0.3061
vn 0.5019 -0.7606 -0.4119
vn 0.4119 -0.7606 -0.5019
vn 0.3061 -0.7606 -0.5726
vn 0.1885 -0.7606 -0.6213
vn 0.0636 -0.7606 -0.6461
vn -0.0636 -0.7606 -0.6461
vn -0.1885 -0.7606 -0.6213
vn -0.3061 -0.7606 -0.5726
vn -0.4119 -0.7606 -0.5019
vn -0.5019 -0.7606 -0.4119
vn -0.5726 -0.7606 -0.3061
vn -0.6213 -0.7606 -0.1885
vn -0.6461 -0.7606 -0.0636
vn -0.6461 -0.7606 0.0636
vn -0.6213 -0.7606 0.1885
vn -0.5726 -0.7606 0.3061
vn -0.5019 -0.7606 0.4119
vn -0.4119 -0.7606 0.5019
vn -0.3061 -0.7606 0.5726
vn -0.1885 -0.7606 0.6213
vn -0.0636 -0.7606 0.6461
vn 0.0636 -0.7606 0.6461
vn 0.0000 -1.0000 -0.0000
vn -0.0980 0.0000 -0.9952
vn 0.1951 0.0000 -0.9808
vn -0.0980 0.0000 0.9952
vn -0.9952 0.0000 0.0980
vn -0.9808 0.0000 -0.1951
vn 0.9808 0.0000 0.1951
vn -0.1951 0.0000 -0.9808
vn 0.1951 0.0000 0.9808
vn -0.1951 0.0000 0.9808
vn -0.9808 0.0000 0.1951
vn -0.0913 0.3626 0.9275
vn -0.9806 -0.0728 -0.1821
vn -0.0908 -0.3774 -0.9216
vn 0.0908 -0.3774 -0.9216
vn 0.9806 -0.0728 -0.1821
vn 0.0913 0.3626 0.9275
vn 0.1821 -0.0728 0.9806
vn -0.9275 0.3626 -0.0913
vn -0.9275 0.3626 0.0913
vn 0.1821 -0.0728 -0.9806
vn 0.9216 -0.3774 0.0908
vn 0.9216 -0.3774 -0.0908
vn -0.9806 -0.0728 0.1821
vn 0.0913 0.3626 -0.9275
vn 0.9806 -0.0728 0.1821
vn -0.0908 -0.3774 0.9216
vn -0.0913 0.3626 -0.9275
vn 0.0908 -0.3774 0.9216
vn -0.1821 -0.0728 0.9806
vn 0.9275 0.3626 -0.0913
vn -0.1821 -0.0728 -0.9806
vn -0.9216 -0.3774 0.0908
vn 0.9275 0.3626 0.0913
vn -0.9216 -0.3774 -0.0908
usemtl None
s off
f 158//1 59//1 60//1 129//1
f 159//2 46//2 47//2 130//2
f 206//3 169//3 170//3 205//3
f 129//4 60//4 61//4 132//4
f 130//5 47//5 48//5 133//5
f 131//6 33//6 35//6 134//6
f 132//7 61//7 62//7 135//7
f 189//8 175//8 176//8 188//8
f 134//9 35//9 36//9 137//9
f 135//10 62//10 63//10 138//10
f 188//11 176//11 168//11 187//11
f 137//12 36//12 37//12 140//12
f 138//13 63//13 64//13 141//13
f 139//14 50//14 51//14 142//14
f 140//15 37//15 38//15 143//15
f 193//16 165//16 163//16 191//16
f 142//17 51//17 52//17 144//17
f 143//18 38//18 39//18 145//18
f 144//19 52//19 53//19 146//19
f 145//20 39//20 40//20 147//20
f 146//21 53//21 54//21 148//21
f 186//22 166//22 167//22 185//22
f 148//23 54//23 55//23 150//23
f 198//8 161//8 162//8 197//8
f 150//24 55//24 56//24 152//24
f 151//25 42//25 43//25 153//25
f 191//26 163//26 164//26 192//26
f 153//27 43//27 44//27 155//27
f 203//26 181//26 182//26 204//26
f 155//28 44//28 45//28 157//28
f 156//29 58//29 59//29 158//29
f 157//30 45//30 46//30 159//30
f 13//31 127//31 72//31 14//31
f 127//32 128//32 71//32 72//32
f 26//33 125//33 68//33 27//33
f 125//34 126//34 67//34 68//34
f 12//35 123//35 127//35 13//35
f 123//36 124//36 128//36 127//36
f 25//37 121//37 125//37 26//37
f 121//38 122//38 126//38 125//38
f 11//39 119//39 123//39 12//39
f 119//40 120//40 124//40 123//40
f 24//41 117//41 121//41 25//41
f 117//42 118//42 122//42 121//42
f 10//43 115//43 119//43 11//43
f 115//44 116//44 120//44 119//44
f 23//45 113//45 117//45 24//45
f 113//46 114//46 118//46 117//46
f 9//47 111//47 115//47 10//47
f 111//48 112//48 116//48 115//48
f 22//49 109//49 113//49 23//49
f 109//50 110//50 114//50 113//50
f 8//51 107//51 111//51 9//51
f 107//52 108//52 112//52 111//52
f 21//53 105//53 109//53 22//53
f 105//54 106//54 110//54 109//54
f 7//55 103//55 107//55 8//55
f 103//56 104//56 108//56 107//56
f 20//57 101//57 105//57 21//57
f 101//58 102//58 106//58 105//58
f 6//59 99//59 103//59 7//59
f 99//60 100//60 104//60 103//60
f 19//61 97//61 101//61 20//61
f 97//62 98//62 102//62 101//62
f 32//63 95//63 76//63 1//63
f 95//64 96//64 75//64 76//64
f 5//65 93//65 99//65 6//65
f 93//66 94//66 100//66 99//66
f 18//67 91//67 97//67 19//67
f 91//68 92//68 98//68 97//68
f 31//69 89//69 95//69 32//69
f 89//70 90//70 96//70 95//70
f 4//71 87//71 93//71 5//71
f 87//72 88//72 94//72 93//72
f 17//73 85//73 91//73 18//73
f 85//74 86//74 92//74 91//74
f 30//75 83//75 89//75 31//75
f 83//76 84//76 90//76 89//76
f 3//77 81//77 87//77 4//77
f 81//78 82//78 88//78 87//78
f 16//79 79//79 85//79 17//79
f 79//80 80//80 86//80 85//80
f 29//81 77//81 83//81 30//81
f 77//82 78//82 84//82 83//82
f 2//83 73//83 81//83 3//83
f 73//84 74//84 82//84 81//84
f 15//85 69//85 79//85 16//85
f 69//86 70//86 80//86 79//86
f 28//87 65//87 77//87 29//87
f 65//88 66//88 78//88 77//88
f 1//89 76//89 73//89 2//89
f 76//90 75//90 74//90 73//90
f 14//91 72//91 69//91 15//91
f 72//92 71//92 70//92 69//92
f 27//93 68//93 65//93 28//93
f 68//94 67//94 66//94 65//94
f 128//95 157//95 159//95 71//95
f 126//96 156//96 158//96 67//96
f 124//97 155//97 157//97 128//97
f 122//98 154//98 156//98 126//98
f 120//99 153//99 155//99 124//99
f 118//100 152//100 154//100 122//100
f 116//101 151//101 153//101 120//101
f 114//102 150//102 152//102 118//102
f 112//103 149//103 151//103 116//103
f 110//104 148//104 150//104 114//104
f 108//105 147//105 149//105 112//105
f 106//106 146//106 148//106 110//106
f 104//107 145//107 147//107 108//107
f 102//108 144//108 146//108 106//108
f 100//109 143//109 145//109 104//109
f 98//110 142//110 144//110 102//110
f 96//111 141//111 160//111 75//111
f 94//112 140//112 143//112 100//112
f 92//113 139//113 142//113 98//113
f 90//114 138//114 141//114 96//114
f 88//115 137//115 140//115 94//115
f 86//116 136//116 139//116 92//116
f 84//117 135//117 138//117 90//117
f 82//118 134//118 137//118 88//118
f 80//119 133//119 136//119 86//119
f 78//120 132//120 135//120 84//120
f 74//121 131//121 134//121 82//121
f 70//122 130//122 133//122 80//122
f 66//123 129//123 132//123 78//123
f 75//124 160//124 131//124 74//124
f 71//125 159//125 130//125 70//125
f 67//126 158//126 129//126 66//126
f 2//127 3//127 35//127 33//127
f 3//128 4//128 36//128 35//128
f 4//129 5//129 37//129 36//129
f 5//130 6//130 38//130 37//130
f 6//131 7//131 39//131 38//131
f 7//132 8//132 40//132 39//132
f 8//133 9//133 41//133 40//133
f 9//134 10//134 42//134 41//134
f 10//135 11//135 43//135 42//135
f 11//136 12//136 44//136 43//136
f 12//137 13//137 45//137 44//137
f 13//138 14//138 46//138 45//138
f 14//139 15//139 47//139 46//139
f 15//140 16//140 48//140 47//140
f 16//141 17//141 49//141 48//141
f 17//142 18//142 50//142 49//142
f 18//143 19//143 51//143 50//143
f 19//144 20//144 52//144 51//144
f 20//145 21//145 53//145 52//145
f 21//146 22//146 54//146 53//146
f 22//147 23//147 55//147 54//147
f 23//148 24//148 56//148 55//148
f 24//149 25//149 57//149 56//149
f 25//150 26//150 58//150 57//150
f 26//151 27//151 59//151 58//151
f 27//152 28//152 60//152 59//152
f 28//153 29//153 61//153 60//153
f 29//154 30//154 62//154 61//154
f 30//155 31//155 63//155 62//155
f 31//156 32//156 64//156 63//156
f 32//157 1//157 34//157 64//157
f 1//158 2//158 33//158 34//158
f 184//159 162//159 161//159 173//159
f 174//159 167//159 166//159 175//159
f 175//159 166//159 168//159 176//159
f 177//159 172//159 162//159 184//159
f 178//159 164//159 163//159 179//159
f 179//159 163//159 165//159 180//159
f 181//159 170//159 169//159 182//159
f 182//159 169//159 171//159 183//159
f 187//160 168//160 166//160 186//160
f 192//161 164//161 178//161 194//161
f 200//160 184//160 173//160 199//160
f 197//162 162//162 172//162 201//162
f 207//163 171//163 169//163 206//163
f 185//164 167//164 174//164 190//164
f 196//163 179//163 180//163 195//163
f 201//165 172//165 177//165 202//165
f 208//166 183//166 171//166 207//166
f 202//22 177//22 184//22 200//22
f 190//162 174//162 175//162 189//162
f 194//3 178//3 179//3 196//3
f 204//16 182//16 183//16 208//16
f 195//167 180//167 165//167 193//167
f 205//168 170//168 181//168 203//168
f 199//169 173//169 161//169 198//169
f 133//170 190//170 189//170 136//170
f 48//171 185//171 190//171 133//171
f 50//172 187//172 186//172 49//172
f 49//173 186//173 185//173 48//173
f 139//174 188//174 187//174 50//174
f 136//175 189//175 188//175 139//175
f 151//176 195//176 193//176 42//176
f 147//177 194//177 196//177 149//177
f 149//178 196//178 195//178 151//178
f 40//179 192//179 194//179 147//179
f 41//180 191//180 192//180 40//180
f 42//181 193//181 191//181 41//181
f 131//182 199//182 198//182 33//182
f 141//183 202//183 200//183 160//183
f 64//184 201//184 202//184 141//184
f 34//185 197//185 201//185 64//185
f 160//186 200//186 199//186 131//186
f 33//187 198//187 197//187 34//187
f 56//188 205//188 203//188 152//188
f 154//189 204//189 208//189 156//189
f 156//190 208//190 207//190 58//190
f 58//191 207//191 206//191 57//191
f 152//192 203//192 204//192 154//192
f 57//193 206//193 205//193 56//193
