{
  "accessors": [
    {
      "bufferView": 2,
      "componentType": 5126,
      "count": 5954,
      "max": [
        14.82229232788086,
        18.806081771850586,
        7.44320011138916
      ],
      "min": [
        -14.876921653747559,
        -0.24238204956054688,
        0.42089056968688965
      ],
      "type": "VEC3"
    },
    {
      "bufferView": 2,
      "byteOffset": 71448,
      "componentType": 5126,
      "count": 5954,
      "max": [
        1.0,
        1.0,
        1.0
      ],
      "min": [
        -1.0,
        -1.0,
        -1.0
      ],
      "type": "VEC3"
    },
    {
      "bufferView": 3,
      "componentType": 5126,
      "count": 5954,
      "max": [
        1.0,
        1.0,
        1.0,
        1.0
      ],
      "min": [
        -1.0,
        -1.0,
        -1.0,
        -1.0
      ],
      "type": "VEC4"
    },
    {
      "bufferView": 1,
      "componentType": 5126,
      "count": 5954,
      "max": [
        0.9961040019989014,
        0.9848009943962097
      ],
      "min": [
        0.007544000167399645,
        0.0021540001034736633
      ],
      "type": "VEC2"
    },
    {
      "bufferView": 0,
      "componentType": 5125,
      "count": 18936,
      "type": "SCALAR"
    },
    {
      "bufferView": 2,
      "byteOffset": 142896,
      "componentType": 5126,
      "count": 580,
      "max": [
        54.7318000793457,
        16.08690071105957,
        1.538699984550476
      ],
      "min": [
        41.080142974853516,
        -3.190793991088867,
        -0.019200026988983154
      ],
      "type": "VEC3"
    },
    {
      "bufferView": 2,
      "byteOffset": 149856,
      "componentType": 5126,
      "count": 580,
      "max": [
        1.0,
        1.0,
        1.0
      ],
      "min": [
        -1.0,
        -1.0,
        -1.0
      ],
      "type": "VEC3"
    },
    {
      "bufferView": 3,
      "byteOffset": 95264,
      "componentType": 5126,
      "count": 580,
      "max": [
        1.0,
        1.0,
        1.0,
        1.0
      ],
      "min": [
        -1.0,
        -0.9999973773956299,
        -0.9566101431846619,
        1.0
      ],
      "type": "VEC4"
    },
    {
      "bufferView": 1,
      "byteOffset": 47632,
      "componentType": 5126,
      "count": 580,
      "max": [
        0.9969890117645264,
        0.9972460269927979
      ],
      "min": [
        0.002256999956443906,
        0.002256999956443906
      ],
      "type": "VEC2"
    },
    {
      "bufferView": 0,
      "byteOffset": 75744,
      "componentType": 5125,
      "count": 1752,
      "type": "SCALAR"
    },
    {
      "bufferView": 2,
      "byteOffset": 156816,
      "componentType": 5126,
      "count": 32576,
      "max": [
        18.085285186767578,
        17.576047897338867,
        14.634900093078613
      ],
      "min": [
        -26.750347137451172,
        -18.8023624420166,
        -0.01632213592529297
      ],
      "type": "VEC3"
    },
    {
      "bufferView": 2,
      "byteOffset": 547728,
      "componentType": 5126,
      "count": 32576,
      "max": [
        1.0,
        1.0,
        1.0
      ],
      "min": [
        -1.0,
        -1.0,
        -1.0
      ],
      "type": "VEC3"
    },
    {
      "bufferView": 3,
      "byteOffset": 104544,
      "componentType": 5126,
      "count": 32576,
      "max": [
        1.0,
        1.0,
        1.0,
        1.0
      ],
      "min": [
        -1.0,
        -1.0,
        -0.9999905824661255,
        1.0
      ],
      "type": "VEC4"
    },
    {
      "bufferView": 1,
      "byteOffset": 52272,
      "componentType": 5126,
      "count": 32576,
      "max": [
        0.9962180256843567,
        0.9961739778518677
      ],
      "min": [
        0.0021540001034736633,
        0.0021540001034736633
      ],
      "type": "VEC2"
    },
    {
      "bufferView": 0,
      "byteOffset": 82752,
      "componentType": 5125,
      "count": 129801,
      "type": "SCALAR"
    },
    {
      "bufferView": 2,
      "byteOffset": 938640,
      "componentType": 5126,
      "count": 4069,
      "max": [
        15.238699913024902,
        18.364198684692383,
        7.864999771118164
      ],
      "min": [
        -15.204000473022461,
        0.0017979999538511038,
        -0.07159700244665146
      ],
      "type": "VEC3"
    },
    {
      "bufferView": 2,
      "byteOffset": 987468,
      "componentType": 5126,
      "count": 4069,
      "max": [
        1.0,
        1.0,
        1.0
      ],
      "min": [
        -1.0,
        -1.0,
        -1.0
      ],
      "type": "VEC3"
    },
    {
      "bufferView": 3,
      "byteOffset": 625760,
      "componentType": 5126,
      "count": 4069,
      "max": [
        1.0,
        1.0,
        1.0,
        1.0
      ],
      "min": [
        -1.0,
        -1.0,
        -0.9999985694885254,
        1.0
      ],
      "type": "VEC4"
    },
    {
      "bufferView": 1,
      "byteOffset": 312880,
      "componentType": 5126,
      "count": 4069,
      "max": [
        0.9970149993896484,
        0.9961450099945068
      ],
      "min": [
        0.0024139999877661467,
        0.0024139999877661467
      ],
      "type": "VEC2"
    },
    {
      "bufferView": 0,
      "byteOffset": 601956,
      "componentType": 5125,
      "count": 11010,
      "type": "SCALAR"
    }
  ],
  "asset": {
    "extras": {
      "author": "Dolgov (https://sketchfab.com/Dolgov12)",
      "license": "CC-BY-4.0 (http://creativecommons.org/licenses/by/4.0/)",
      "source": "https://sketchfab.com/3d-models/sony-playstation-2-b53f858aa1584229a7f906239fc158a2",
      "title": "Sony PlayStation 2"
    },
    "generator": "Sketchfab-13.74.0",
    "version": "2.0"
  },
  "bufferViews": [
    {
      "buffer": 0,
      "byteLength": 645996,
      "name": "floatBufferViews",
      "target": 34963
    },
    {
      "buffer": 0,
      "byteLength": 345432,
      "byteOffset": 645996,
      "byteStride": 8,
      "name": "floatBufferViews",
      "target": 34962
    },
    {
      "buffer": 0,
      "byteLength": 1036296,
      "byteOffset": 991428,
      "byteStride": 12,
      "name": "floatBufferViews",
      "target": 34962
    },
    {
      "buffer": 0,
      "byteLength": 690864,
      "byteOffset": 2027724,
      "byteStride": 16,
      "name": "floatBufferViews",
      "target": 34962
    }
  ],
  "buffers": [
    {
      "byteLength": 2718588,
      "uri": "ps2.bin"
    }
  ],
  "images": [
    {
      "uri": "textures/M_PS2_Details_baseColor.png"
    },
    {
      "uri": "textures/M_PS2_Details_metallicRoughness.png"
    },
    {
      "uri": "textures/M_PS2_Details_normal.png"
    },
    {
      "uri": "textures/M_PS2_Box_baseColor.png"
    },
    {
      "uri": "textures/M_PS2_Box_metallicRoughness.png"
    },
    {
      "uri": "textures/M_PS2_Box_normal.png"
    },
    {
      "uri": "textures/M_PS2_Body_baseColor.png"
    },
    {
      "uri": "textures/M_PS2_Body_metallicRoughness.png"
    },
    {
      "uri": "textures/M_PS2_Body_normal.png"
    }
  ],
  "materials": [
    {
      "doubleSided": true,
      "name": "M_PS2_Details",
      "normalTexture": {
        "index": 2
      },
      "occlusionTexture": {
        "index": 1
      },
      "pbrMetallicRoughness": {
        "baseColorTexture": {
          "index": 0
        },
        "metallicRoughnessTexture": {
          "index": 1
        }
      }
    },
    {
      "alphaMode": "BLEND",
      "doubleSided": true,
      "name": "M_PS2_Box",
      "normalTexture": {
        "index": 5
      },
      "occlusionTexture": {
        "index": 4
      },
      "pbrMetallicRoughness": {
        "baseColorTexture": {
          "index": 3
        },
        "metallicFactor": 0.0,
        "metallicRoughnessTexture": {
          "index": 4
        }
      }
    },
    {
      "doubleSided": true,
      "name": "M_PS2_Body",
      "normalTexture": {
        "index": 8
      },
      "occlusionTexture": {
        "index": 7
      },
      "pbrMetallicRoughness": {
        "baseColorTexture": {
          "index": 6
        },
        "metallicRoughnessTexture": {
          "index": 7
        }
      }
    }
  ],
  "meshes": [
    {
      "name": "PS2_Body_M_PS2_Details_0",
      "primitives": [
        {
          "attributes": {
            "NORMAL": 1,
            "POSITION": 0,
            "TANGENT": 2,
            "TEXCOORD_0": 3
          },
          "indices": 4,
          "material": 0,
          "mode": 4
        }
      ]
    },
    {
      "name": "PS2_Box_M_PS2_Box_0",
      "primitives": [
        {
          "attributes": {
            "NORMAL": 6,
            "POSITION": 5,
            "TANGENT": 7,
            "TEXCOORD_0": 8
          },
          "indices": 9,
          "material": 1,
          "mode": 4
        }
      ]
    },
    {
      "name": "PS2_Details_M_PS2_Details_0",
      "primitives": [
        {
          "attributes": {
            "NORMAL": 11,
            "POSITION": 10,
            "TANGENT": 12,
            "TEXCOORD_0": 13
          },
          "indices": 14,
          "material": 0,
          "mode": 4
        }
      ]
    },
    {
      "name": "Object009_M_PS2_Body_0",
      "primitives": [
        {
          "attributes": {
            "NORMAL": 16,
            "POSITION": 15,
            "TANGENT": 17,
            "TEXCOORD_0": 18
          },
          "indices": 19,
          "material": 2,
          "mode": 4
        }
      ]
    }
  ],
  "nodes": [
    {
      "children": [
        1
      ],
      "matrix": [
        1.0,
        0.0,
        0.0,
        0.0,
        0.0,
        2.220446049250313e-16,
        -1.0,
        0.0,
        0.0,
        1.0,
        2.220446049250313e-16,
        0.0,
        0.0,
        0.0,
        0.0,
        1.0
      ],
      "name": "Sketchfab_model"
    },
    {
      "children": [
        2
      ],
      "matrix": [
        0.009999999776482582,
        0.0,
        0.0,
        0.0,
        0.0,
        0.0,
        0.009999999776482582,
        0.0,
        0.0,
        -0.009999999776482582,
        0.0,
        0.0,
        0.0,
        0.0,
        0.0,
        1.0
      ],
      "name": "bcdaded125174eeba99e3f3fdfd8e3cc.fbx"
    },
    {
      "children": [
        3,
        5,
        8,
        10
      ],
      "name": "RootNode"
    },
    {
      "children": [
        4
      ],
      "matrix": [
        1.0,
        0.0,
        0.0,
        0.0,
        0.0,
        2.220446049250313e-16,
        -1.0,
        0.0,
        0.0,
        1.0,
        2.220446049250313e-16,
        0.0,
        0.0,
        0.0,
        0.0,
        1.0
      ],
      "name": "PS2_Body"
    },
    {
      "mesh": 0,
      "name": "PS2_Body_M_PS2_Details_0"
    },
    {
      "children": [
        6
      ],
      "matrix": [
        0.7660444576809406,
        5.551115123125783e-17,
        -0.6427875923322677,
        0.0,
        -0.6427875923322677,
        2.220446049250313e-16,
        -0.7660444576809406,
        0.0,
        5.551115123125783e-17,
        1.0,
        2.220446049250313e-16,
        0.0,
        26.50664710998535,
        0.7862285375595093,
        -10.13872241973877,
        1.0
      ],
      "name": "PS2_Box"
    },
    {
      "children": [
        7
      ],
      "matrix": [
        1.0,
        0.0,
        -0.0,
        0.0,
        0.0,
        1.0,
        0.0,
        0.0,
        0.0,
        0.0,
        1.0,
        0.0,
        -47.90597152709961,
        -6.448053359985352,
        -0.7597500085830688,
        1.0
      ],
      "name": "Object_6"
    },
    {
      "mesh": 1,
      "name": "PS2_Box_M_PS2_Box_0"
    },
    {
      "children": [
        9
      ],
      "matrix": [
        1.0,
        0.0,
        0.0,
        0.0,
        0.0,
        2.220446049250313e-16,
        -1.0,
        0.0,
        0.0,
        1.0,
        2.220446049250313e-16,
        0.0,
        0.0,
        0.0,
        0.029541015625,
        1.0
      ],
      "name": "PS2_Details"
    },
    {
      "mesh": 2,
      "name": "PS2_Details_M_PS2_Details_0"
    },
    {
      "children": [
        11
      ],
      "matrix": [
        1.0,
        0.0,
        0.0,
        0.0,
        0.0,
        2.220446049250313e-16,
        -1.0,
        0.0,
        0.0,
        1.0,
        2.220446049250313e-16,
        0.0,
        0.0,
        0.0,
        0.0,
        1.0
      ],
      "name": "Object009"
    },
    {
      "mesh": 3,
      "name": "Object009_M_PS2_Body_0"
    }
  ],
  "samplers": [
    {
      "magFilter": 9729,
      "minFilter": 9987,
      "wrapS": 10497,
      "wrapT": 10497
    }
  ],
  "scene": 0,
  "scenes": [
    {
      "name": "Sketchfab_Scene",
      "nodes": [
        0
      ]
    }
  ],
  "textures": [
    {
      "sampler": 0,
      "source": 0
    },
    {
      "sampler": 0,
      "source": 1
    },
    {
      "sampler": 0,
      "source": 2
    },
    {
      "sampler": 0,
      "source": 3
    },
    {
      "sampler": 0,
      "source": 4
    },
    {
      "sampler": 0,
      "source": 5
    },
    {
      "sampler": 0,
      "source": 6
    },
    {
      "sampler": 0,
      "source": 7
    },
    {
      "sampler": 0,
      "source": 8
    }
  ]
}
